# xmcd CD database file
#
# Track frame offsets:
#	150
#	20853
#	43263
#	71350
#	96203
#	110740
#	126661
#	149528
#	166311
#	182838
#	201834
#	218904
#	231564
#	243334
#
# Disc length: 3706 seconds
#
# Revision: 0
# Processed by: cddbd v1.5.1PL2 Copyright (c) Steve Scherf et al.
# Submitted via: CDex 1.60beta1
#
DISCID=e10e780e
DTITLE=The James Pearson Trio - The Best Things In Life
DYEAR=2004
DGENRE=Jazz
TTITLE0=The Best Things In Life Are Free
TTITLE1=The Poacher
TTITLE2=A Dream Is A Wish Your Heart Makes
TTITLE3=Wee Dram Blues
TTITLE4=This Heart Of Mine
TTITLE5=Opus 1
TTITLE6=So Many Stars
TTITLE7=The Impossible Dream
TTITLE8=London By Night
TTITLE9=Guys And Dolls
TTITLE10=Count Boozy
TTITLE11=God Only Knows
TTITLE12=Cottontail
TTITLE13=A Tribute To Someone
EXTD=YEAR: 2004
EXTT0=
EXTT1=
EXTT2=
EXTT3=
EXTT4=
EXTT5=
EXTT6=
EXTT7=
EXTT8=
EXTT9=
EXTT10=
EXTT11=
EXTT12=
EXTT13=
PLAYORDER=
